<svg xmlns="http://www.w3.org/2000/svg" xmlns:xlink="http://www.w3.org/1999/xlink" viewBox="0 0 187.14 187.14"><defs><style>.cls-1{fill:url(#linear-gradient);}</style><linearGradient id="linear-gradient" x1="10.86" y1="63.6" x2="186.8" y2="127.35" gradientUnits="userSpaceOnUse"><stop offset="0" stop-color="#5fe900"/><stop offset="1" stop-color="#109900"/></linearGradient></defs><g id="Layer_2" data-name="Layer 2"><g id="Layer_1-2" data-name="Layer 1"><path class="cls-1" d="M187.14,98.2V88.94a5.58,5.58,0,0,0-5.59-5.58h-.85a5.58,5.58,0,0,1-5.49-4.64,82.46,82.46,0,0,0-13.1-32.48,5.54,5.54,0,0,1,.69-7l1.35-1.35a5.59,5.59,0,0,0,0-7.9l-6.54-6.55a5.59,5.59,0,0,0-7.9,0l-1.14,1.14a5.56,5.56,0,0,1-7.16.6,82.49,82.49,0,0,0-33-13.88,5.57,5.57,0,0,1-4.58-5.48v-.2A5.58,5.58,0,0,0,98.2,0H88.94a5.58,5.58,0,0,0-5.58,5.59v.2a5.54,5.54,0,0,1-4.54,5.47A82.24,82.24,0,0,0,47,24.29a5.55,5.55,0,0,1-7-.68l-.19-.2a5.59,5.59,0,0,0-7.9,0L25.28,30a5.59,5.59,0,0,0,0,7.9h0A5.56,5.56,0,0,1,25.89,45a82.37,82.37,0,0,0-14,33.72,5.56,5.56,0,0,1-5.48,4.63H5.59A5.58,5.58,0,0,0,0,88.94V98.2a5.58,5.58,0,0,0,5.59,5.58H6.73a5.57,5.57,0,0,1,5.47,4.53A82.38,82.38,0,0,0,26,140.66a5.54,5.54,0,0,1-.63,7.12l-.06.06a5.59,5.59,0,0,0,0,7.9l6.55,6.54a5.59,5.59,0,0,0,7.9,0L40,162a5.55,5.55,0,0,1,7-.69,82.16,82.16,0,0,0,31.78,13,5.55,5.55,0,0,1,4.54,5.47v1.79a5.58,5.58,0,0,0,5.58,5.59H98.2a5.58,5.58,0,0,0,5.58-5.59v-1.79a5.56,5.56,0,0,1,4.58-5.47,82.56,82.56,0,0,0,33-13.83,5.57,5.57,0,0,1,7.16.6l1.22,1.22a5.59,5.59,0,0,0,7.9,0l6.54-6.54a5.59,5.59,0,0,0,0-7.9l-1.41-1.41a5.55,5.55,0,0,1-.68-7.05A82.36,82.36,0,0,0,175,108.27a5.54,5.54,0,0,1,5.46-4.49h1.14A5.58,5.58,0,0,0,187.14,98.2ZM99.72,141.7a49.18,49.18,0,1,1,43.91-43.9A49.19,49.19,0,0,1,99.72,141.7Z"/></g></g></svg>