<svg xmlns="http://www.w3.org/2000/svg" xmlns:xlink="http://www.w3.org/1999/xlink" viewBox="0 0 184.91 176.79"><defs><style>.cls-1{fill:url(#linear-gradient);}</style><linearGradient id="linear-gradient" x1="-123.12" y1="187.15" x2="25.21" y2="87.05" gradientTransform="translate(179.04 -26.62) rotate(13.43)" gradientUnits="userSpaceOnUse"><stop offset="0" stop-color="#f0ff15"/><stop offset="1" stop-color="#f7ad15"/></linearGradient></defs><g id="Layer_2" data-name="Layer 2"><g id="Layer_1-2" data-name="Layer 1"><path class="cls-1" d="M139.54,175.71,96.7,153.16a9.2,9.2,0,0,0-8.58,0L45.25,175.66a9.22,9.22,0,0,1-13.37-9.73l8.21-47.71a9.25,9.25,0,0,0-2.65-8.17L2.79,76.24A9.23,9.23,0,0,1,7.91,60.51l47.91-6.93a9.22,9.22,0,0,0,7-5L84.22,5.14a9.22,9.22,0,0,1,16.54,0l21.4,43.43a9.24,9.24,0,0,0,6.94,5l47.91,7a9.22,9.22,0,0,1,5.1,15.73l-34.69,33.77a9.21,9.21,0,0,0-2.65,8.16L152.92,166A9.22,9.22,0,0,1,139.54,175.71Z"/></g></g></svg>